<svg width="17" height="16" viewBox="0 0 17 16" fill="none" xmlns="http://www.w3.org/2000/svg">
<path opacity="0.4" d="M1.85144 14.6498C0.335438 13.1338 0.508481 11.1079 0.508481 7.99594C0.508481 4.95594 0.308438 2.88209 1.85144 1.34409C2.75912 0.492634 3.96312 0.0283075 5.20746 0.0506312C6.68046 -0.0153688 10.3274 -0.0183688 11.7994 0.0506312C14.8104 0.189631 16.3184 1.892 16.4504 4.702C16.5154 6.174 16.5194 9.81982 16.4504 11.2928C16.3414 13.6718 15.2224 14.9931 13.7394 15.5721C12.6504 15.9941 11.5865 15.992 8.50348 15.992C7.87848 15.992 7.29249 16.0008 6.74249 16.0008C4.64849 15.9988 3.07444 15.8728 1.85144 14.6498ZM14.1295 13.6307C15.1215 12.6307 15.0585 11.2909 15.0585 7.99594C15.0585 5.86094 15.0505 5.60799 15.0115 4.76499C14.8445 1.06499 12.0565 1.43979 8.50445 1.43979L8.47345 1.41977C6.33645 1.41977 6.08545 1.43081 5.23645 1.45981C1.53645 1.64981 1.91949 4.30271 1.91949 7.98471C1.91949 10.7077 1.71947 12.5029 2.83947 13.6209C3.81447 14.5989 5.15046 14.5487 8.48346 14.5487C11.7215 14.5497 13.1215 14.6387 14.1295 13.6307ZM4.40149 7.99887C4.40083 7.45953 4.50658 6.9255 4.7127 6.4271C4.91883 5.92869 5.22124 5.4759 5.60266 5.09458C5.98408 4.71325 6.43703 4.41093 6.93548 4.20493C7.43394 3.99892 7.9681 3.8931 8.50744 3.89389C9.59616 3.89389 10.6403 4.3262 11.4102 5.09604C12.18 5.86588 12.6125 6.91016 12.6125 7.99887C12.6109 9.08768 12.1769 10.1314 11.4059 10.9002C10.635 11.6691 9.59027 12.1003 8.50146 12.099C7.41407 12.099 6.37125 11.6667 5.60235 10.8978C4.83345 10.1289 4.40149 9.08626 4.40149 7.99887ZM5.84149 7.99887C5.84136 8.34893 5.91019 8.69545 6.04406 9.01889C6.17793 9.34234 6.37416 9.63655 6.62164 9.88413C6.86912 10.1317 7.16299 10.3278 7.48639 10.4618C7.80978 10.5958 8.15641 10.6649 8.50647 10.6649C8.85651 10.665 9.20315 10.5962 9.52655 10.4623C9.84995 10.3283 10.1437 10.1317 10.3912 9.88413C10.6386 9.63651 10.8348 9.34239 10.9685 9.01889C11.1022 8.69539 11.1709 8.34892 11.1705 7.99887C11.1706 7.64899 11.1018 7.30261 10.968 6.97934C10.8341 6.65607 10.6379 6.36249 10.3905 6.11508C10.1431 5.86768 9.84933 5.67128 9.52606 5.53745C9.20279 5.40362 8.85635 5.33468 8.50647 5.33481C8.15629 5.33428 7.80945 5.40283 7.48578 5.53647C7.1621 5.67011 6.86791 5.86619 6.62011 6.11362C6.37232 6.36105 6.17575 6.65489 6.04162 6.97837C5.90749 7.30184 5.83844 7.64869 5.83844 7.99887H5.84149ZM11.8155 3.73178C11.8156 3.60585 11.8405 3.48139 11.8889 3.36508C11.9372 3.24878 12.0079 3.14301 12.097 3.05405C12.1862 2.96509 12.292 2.8946 12.4084 2.84653C12.5248 2.79846 12.6495 2.77364 12.7754 2.77378C13.0296 2.77378 13.2734 2.87491 13.4532 3.05454C13.6331 3.23417 13.7342 3.47761 13.7344 3.73178C13.7346 3.85776 13.7099 3.98256 13.6617 4.09897C13.6136 4.21538 13.5429 4.32142 13.4539 4.41049C13.3648 4.49957 13.259 4.56987 13.1426 4.61801C13.0262 4.66616 12.9014 4.6909 12.7754 4.69077C12.6489 4.6913 12.5236 4.66665 12.4066 4.6185C12.2895 4.57036 12.1832 4.49992 12.0937 4.41049C12.0042 4.32107 11.9333 4.21447 11.885 4.09751C11.8367 3.98055 11.812 3.85538 11.8124 3.72885L11.8155 3.73178Z" fill="#131821"/>
</svg>
