<svg width="17" height="11" viewBox="0 0 17 11" fill="none" xmlns="http://www.w3.org/2000/svg">
<path opacity="0.4" d="M8.50391 11C6.55691 11 4.05597 10.97 3.04297 10.913C2.11497 10.849 1.62871 10.7321 1.17871 9.93506C0.728711 9.13806 0.5 7.73496 0.5 5.50696V5.49695C0.5 3.23695 0.708711 1.86904 1.17871 1.06104C1.61271 0.294035 2.08392 0.147041 3.04492 0.092041C4.06592 0.024041 6.62391 0 8.50391 0C10.3839 0 12.935 0.024041 13.958 0.092041C14.919 0.147041 15.3913 0.292035 15.8203 1.06104C16.2913 1.86104 16.501 3.22802 16.501 5.49902V5.50598C16.501 7.77798 16.2923 9.14501 15.8223 9.93701C15.3923 10.699 14.922 10.849 13.958 10.913C12.948 10.969 10.4499 11 8.50391 11ZM6.50391 2.5V8.5L11.5039 5.5L6.50391 2.5Z" fill="#131821"/>
</svg>
