<svg width="17" height="13" viewBox="0 0 17 13" fill="none" xmlns="http://www.w3.org/2000/svg">
<path opacity="0.4" d="M16.5 1.5378C15.8981 1.8003 15.2616 1.97476 14.61 2.0558C15.2967 1.64843 15.8101 1.00336 16.053 0.242799C15.41 0.624135 14.7065 0.892673 13.973 1.0368C13.5232 0.556934 12.9395 0.223395 12.2977 0.0794801C11.6559 -0.0644347 10.9856 -0.0120742 10.374 0.229764C9.76233 0.471602 9.23751 0.891745 8.86767 1.43564C8.49782 1.97954 8.30004 2.62207 8.3 3.2798C8.29741 3.53118 8.3229 3.78207 8.376 4.0278C7.07106 3.96421 5.79424 3.62591 4.62902 3.03502C3.46379 2.44414 2.43639 1.61397 1.614 0.598798C1.19185 1.32042 1.06109 2.17597 1.24843 2.99073C1.43577 3.8055 1.92707 4.51803 2.622 4.9828C2.10309 4.97014 1.59481 4.83296 1.14 4.5828V4.6188C1.1418 5.37598 1.40394 6.10952 1.88243 6.69635C2.36093 7.28318 3.02668 7.68761 3.768 7.8418C3.48739 7.91575 3.19819 7.95207 2.908 7.9498C2.69959 7.95351 2.49139 7.93473 2.287 7.8938C2.49894 8.54482 2.90749 9.11414 3.45639 9.52335C4.0053 9.93257 4.66756 10.1616 5.352 10.1788C4.19103 11.0871 2.75908 11.5801 1.285 11.5788C1.02249 11.5783 0.760287 11.5609 0.5 11.5268C1.99988 12.4933 3.74768 13.0046 5.532 12.9988C6.76023 13.0073 7.9779 12.7717 9.11431 12.3057C10.2507 11.8396 11.2832 11.1524 12.1518 10.284C13.0204 9.4156 13.7078 8.38327 14.1741 7.24696C14.6404 6.11065 14.8762 4.89303 14.868 3.6648C14.868 3.5198 14.863 3.3798 14.856 3.2408C15.503 2.77779 16.0601 2.20068 16.5 1.5378Z" fill="#131821"/>
</svg>
